<svg width="24" height="22" viewBox="0 0 24 22" fill="none" xmlns="http://www.w3.org/2000/svg">
<path d="M3.04232 2.24428L3.04686 2.24444C3.58359 2.26188 4.01337 2.70244 4.01337 3.24347V4.17455L3.71337 4.17447M3.04232 2.24428L2.73085 2.24399M3.04232 2.24428L3.03198 2.5441L3.03652 2.54426L3.03702 2.54428L2.73274 2.54399M3.04232 2.24428L3.0422 2.37959L3.04219 2.38812L3.04204 2.54428L3.03711 2.54428C3.41258 2.55648 3.71337 2.86488 3.71337 3.24347V3.24351V3.24358V3.24367V3.2438V3.24395V3.24413V3.24434V3.24457V3.24483V3.24512V3.24543V3.24577V3.24614V3.24654V3.24696V3.24741V3.24788V3.24838V3.24891V3.24946V3.25003V3.25064V3.25127V3.25192V3.2526V3.2533V3.25403V3.25479V3.25557V3.25637V3.2572V3.25806V3.25893V3.25984V3.26076V3.26171V3.26269V3.26369V3.26471V3.26576V3.26683V3.26792V3.26904V3.27018V3.27134V3.27253V3.27374V3.27497V3.27622V3.2775V3.2788V3.28012V3.28147V3.28283V3.28422V3.28563V3.28707V3.28852V3.29V3.29149V3.29301V3.29455V3.29611V3.29769V3.2993V3.30092V3.30257V3.30423V3.30592V3.30762V3.30935V3.3111V3.31287V3.31465V3.31646V3.31829V3.32013V3.322V3.32388V3.32579V3.32771V3.32965V3.33162V3.3336V3.3356V3.33761V3.33965V3.34171V3.34378V3.34587V3.34798V3.35011V3.35225V3.35442V3.3566V3.3588V3.36101V3.36325V3.3655V3.36777V3.37005V3.37235V3.37467V3.37701V3.37936V3.38173V3.38411V3.38651V3.38893V3.39136V3.39381V3.39628V3.39876V3.40125V3.40377V3.40629V3.40883V3.41139V3.41396V3.41655V3.41915V3.42177V3.4244V3.42705V3.42971V3.43239V3.43507V3.43778V3.44049V3.44323V3.44597V3.44873V3.4515V3.45429V3.45708V3.4599V3.46272V3.46556V3.46841V3.47127V3.47415V3.47704V3.47994V3.48285V3.48578V3.48871V3.49166V3.49462V3.4976V3.50058V3.50358V3.50659V3.50961V3.51264V3.51568V3.51873V3.52179V3.52487V3.52795V3.53105V3.53415V3.53727V3.5404V3.54353V3.54668V3.54984V3.553V3.55618V3.55936V3.56256V3.56576V3.56898V3.5722V3.57543V3.57867V3.58192V3.58518V3.58845V3.59172V3.59501V3.5983V3.6016V3.60491V3.60822V3.61155V3.61488V3.61822V3.62156V3.62492V3.62828V3.63165V3.63502V3.63841V3.6418V3.64519V3.6486V3.652V3.65542V3.65884V3.66227V3.66571V3.66915V3.67259V3.67604V3.6795V3.68296V3.68643V3.68991V3.69339V3.69687V3.70036V3.70385V3.70735V3.71085V3.71436V3.71787V3.72139V3.72491V3.72844V3.73197V3.7355V3.73903V3.74258V3.74612V3.74967V3.75322V3.75677V3.76033V3.76389V3.76745V3.77102V3.77458V3.77816V3.78173V3.7853V3.78888V3.79246V3.79604V3.79963V3.80321V3.8068V3.81039V3.81398V3.81757V3.82117V3.82476V3.82836V3.83195V3.83555V3.83915V3.84275V3.84635V3.84995V3.85355V3.85715V3.86075V3.86435V3.86794V3.87154V3.87514V3.87874V3.88234V3.88594V3.88953V3.89313V3.89672V3.90032V3.90391V3.9075V3.91109V3.91468V3.91826V3.92185V3.92543V3.92901V3.93259V3.93616V3.93974V3.94331V3.94688V3.95044V3.954V3.95756V3.96112V3.96468V3.96823V3.97177V3.97532V3.97886V3.98239V3.98593V3.98946V3.99298V3.9965V4.00002V4.00353V4.00704V4.01054V4.01404V4.01754V4.02103V4.02451V4.02799V4.03146V4.03493V4.03839V4.04185V4.0453V4.04875V4.05219V4.05563V4.05905V4.06248V4.06589V4.0693V4.0727V4.0761V4.07949V4.08287V4.08625V4.08962V4.09298V4.09633V4.09968V4.10302V4.10635V4.10968V4.11299V4.1163V4.1196V4.12289V4.12618V4.12945V4.13272V4.13598V4.13923V4.14247V4.1457V4.14893V4.15214V4.15534V4.15854V4.16173V4.1649V4.16807V4.17122V4.17437V4.17447M2.73085 2.24399C2.18467 2.25074 1.74399 2.69567 1.74399 3.24347V4.47395M2.73085 2.24399L2.73057 2.54399L2.73274 2.54399M2.73085 2.24399L2.73456 2.54397C2.73395 2.54397 2.73334 2.54398 2.73274 2.54399M1.74399 4.47395L3.71337 4.47447V4.47442V4.47433V4.4742V4.47405V4.47387V4.47366V4.47343V4.47317V4.47288V4.47256V4.47222V4.47185V4.47145V4.47103V4.47058V4.47011V4.46961V4.46908V4.46853V4.46795V4.46735V4.46672V4.46606V4.46538V4.46468V4.46395V4.46319V4.46241V4.46161V4.46078V4.45992V4.45904V4.45814V4.45721V4.45626V4.45528V4.45428V4.45326V4.45221V4.45114V4.45005V4.44893V4.44779V4.44663V4.44544V4.44423V4.443V4.44174V4.44046V4.43916V4.43784V4.4365V4.43513V4.43374V4.43233V4.43089V4.42944V4.42796V4.42646V4.42495V4.4234V4.42184V4.42026V4.41866V4.41703V4.41539V4.41372V4.41203V4.41033V4.4086V4.40685V4.40508V4.4033V4.40149V4.39966V4.39781V4.39595V4.39406V4.39216V4.39023V4.38829V4.38633V4.38435V4.38235V4.38033V4.37829V4.37623V4.37416V4.37207V4.36996V4.36783V4.36568V4.36352V4.36134V4.35914V4.35692V4.35469V4.35244V4.35017V4.34788V4.34558V4.34326V4.34092V4.33857V4.3362V4.33382V4.33142V4.329V4.32656V4.32412V4.32165V4.31917V4.31667V4.31416V4.31163V4.30909V4.30653V4.30396V4.30137V4.29877V4.29615V4.29352V4.29087V4.28821V4.28553V4.28285V4.28014V4.27742V4.27469V4.27195V4.26919V4.26642V4.26363V4.26083V4.25802V4.25519V4.25236V4.24951V4.24664V4.24377V4.24088V4.23798V4.23506V4.23214V4.2292V4.22625V4.22329V4.22031V4.21733V4.21433V4.21132V4.2083V4.20527V4.20223V4.19918V4.19611V4.19304V4.18995V4.18686V4.18375V4.18064V4.17751V4.17447M1.74399 4.47395H2.04399V4.17403M1.74399 4.47395L1.74407 4.17395L2.04399 4.17403M3.71337 4.17447L2.04399 4.17403M2.04399 4.17403V3.24347C2.04399 2.86069 2.35146 2.54968 2.73274 2.54399M7 4.87152V4.8715C7.00003 4.50092 7.30015 4.1995 7.67188 4.2M7 4.87152L7.67307 4.5L16.3281 4.49991C16.5335 4.49991 16.7 4.66643 16.7 4.87184C16.7 5.07723 16.5335 5.24372 16.3281 5.24372L7.67188 5.24345V5.54345L16.3281 5.54372C16.6992 5.54372 17 5.24293 17 4.87186C17 4.50077 16.6992 4.19991 16.3281 4.19991L7.67307 4.2H7.67188M7 4.87152C6.99999 5.2426 7.30078 5.54345 7.67187 5.54345L7 4.87152ZM7.67188 4.2C7.67198 4.2 7.67208 4.2 7.67218 4.2L7.67165 4.5V4.2H7.67188ZM6.82697 12.8715V12.8715C6.827 12.5009 7.12711 12.1996 7.49867 12.2C7.49885 12.2 7.49903 12.2 7.49921 12.2M6.82697 12.8715L7.12697 12.8715C7.12696 13.0769 7.29346 13.2435 7.49885 13.2435L14.0599 13.2437C14.2653 13.2437 14.4318 13.0772 14.4318 12.8718C14.4319 12.6664 14.2653 12.4998 14.06 12.4998L7.50089 12.5H7.49867L7.49921 12.2M6.82697 12.8715C6.82695 13.2426 7.12775 13.5435 7.49885 13.5435L14.0599 13.5437C14.431 13.5437 14.7318 13.2428 14.7318 12.8718C14.7319 12.5007 14.431 12.1998 14.06 12.1998L7.50089 12.2L7.49921 12.2M6.82697 12.8715L7.49921 12.2M1 4.84596H0.700003C0.700003 5.02415 0.770773 5.19508 0.896815 5.32112C0.896822 5.32113 0.89683 5.32114 0.896837 5.32115L1 4.84596ZM1 4.84596L0.700003 4.84595V4.8459V4.84568V4.84484L0.700003 4.84152L0.700003 4.82854L0.700003 4.77924L0.700002 4.60289L0.7 4.06418L0.700003 3.24293V3.24289C0.700321 2.11599 1.61196 1.20135 2.73967 1.20134C2.73968 1.20134 2.73969 1.20134 2.7397 1.20134L18.2611 1.2L18.2642 1.2V1.20002C19.3832 1.21127 20.2866 2.12184 20.2866 3.24347H19.9912C20.2866 3.24347 20.2866 3.24351 20.2866 3.24361V3.24403V3.2457V3.25234V3.27858V3.38092L20.2866 3.76939V5.15594L20.2866 9.36355L20.2866 15.4854C20.2866 15.512 20.2851 15.5382 20.2821 15.564C20.2851 15.5898 20.2866 15.616 20.2866 15.6426L20.2866 16.8052M1 4.84596L3.71337 5.5179L3.7134 19.0916L3.71341 19.0936C3.72074 20.2111 4.62549 21.1158 5.74323 21.1232H5.7452L21.2567 21.1236H21.2568C22.3851 21.1231 23.2997 20.2085 23.3 19.0802V19.0802L23.3 18.2589L23.3 17.7202V17.5439L23.3 17.4946V17.4816V17.4783V17.4774V17.4772V17.4772C23.3 17.299 23.2292 17.128 23.1032 17.002M23.1032 17.002C23.1032 17.002 23.1032 17.002 23.1032 17.002L22.891 17.2141L23.1032 17.002ZM23.1032 17.002C22.9771 16.8759 22.8062 16.8051 22.628 16.8051L20.2866 16.8052M20.2866 16.8052L19.9866 16.8052L20.2866 17.1052L20.2866 16.8052ZM6.03602 19.7791C6.01594 19.7794 5.83387 19.7796 5.77062 19.7796L5.75709 19.7796L5.75309 19.7795L5.75284 19.7795C5.75268 19.7795 5.75253 19.7795 5.75237 19.7795C5.36911 19.7768 5.05906 19.4661 5.05737 19.0828C5.05737 19.0826 5.05737 19.0825 5.05737 19.0823L5.05734 3.23531L5.05733 3.23389C5.05619 2.99246 5.01315 2.76078 4.9351 2.54587L16.5187 2.54539L18.0303 2.54534L18.2199 2.54533L18.2437 2.54533H18.2467H18.2469C18.6311 2.54596 18.9426 2.85795 18.9426 3.24347L18.9427 15.4854C18.9427 15.5121 18.9442 15.5384 18.9472 15.5642C18.9445 15.5879 18.9429 15.6119 18.9427 15.6362V15.6364L18.9426 16.3744V16.8053L7.39733 16.8059C7.02635 16.8059 6.72678 17.1069 6.72676 17.477L6.72664 19.0796C6.72664 19.463 6.41818 19.7744 6.03602 19.7791ZM6.03602 19.7791L6.03968 20.0791M6.03602 19.7791C6.036 19.7791 6.03598 19.7791 6.03596 19.7791L6.03968 20.0791M6.03968 20.0791C6.01722 20.0794 5.83246 20.0796 5.77062 20.0796L5.75085 20.0795C5.2029 20.0759 4.75943 19.6317 4.75737 19.0834L6.03968 20.0791ZM6.82697 8.8715V8.87152C6.82695 9.24258 7.12775 9.54345 7.49885 9.54345L14.0599 9.54365C14.431 9.54365 14.7318 9.24287 14.7318 8.87179C14.7319 8.50071 14.4311 8.19984 14.06 8.19984L7.5 8.2L7.49909 8.2L7.49856 8.5V8.2H7.49879C7.12702 8.1995 6.827 8.50096 6.82697 8.8715ZM21.2653 19.7791L7.9476 19.7795C8.02713 19.5612 8.07056 19.3256 8.07063 19.0802V19.0801V19.08V19.0799V19.0797V19.0795V19.0793V19.079V19.0787V19.0784V19.0781V19.0777V19.0774V19.0769V19.0765V19.076V19.0756V19.075V19.0745V19.0739V19.0733V19.0727V19.0721V19.0714V19.0707V19.07V19.0693V19.0685V19.0677V19.0669V19.066V19.0652V19.0643V19.0634V19.0624V19.0615V19.0605V19.0595V19.0585V19.0574V19.0563V19.0552V19.0541V19.053V19.0518V19.0506V19.0494V19.0481V19.0469V19.0456V19.0443V19.043V19.0416V19.0402V19.0389V19.0374V19.036V19.0345V19.0331V19.0316V19.0301V19.0285V19.0269V19.0254V19.0238V19.0221V19.0205V19.0188V19.0171V19.0154V19.0137V19.012V19.0102V19.0084V19.0066V19.0048V19.0029V19.0011V18.9992V18.9973V18.9954V18.9934V18.9915V18.9895V18.9875V18.9855V18.9835V18.9814V18.9793V18.9773V18.9752V18.973V18.9709V18.9687V18.9666V18.9644V18.9622V18.9599V18.9577V18.9554V18.9532V18.9509V18.9486V18.9462V18.9439V18.9415V18.9392V18.9368V18.9344V18.9319V18.9295V18.927V18.9246V18.9221V18.9196V18.9171V18.9145V18.912V18.9094V18.9069V18.9043V18.9017V18.899V18.8964V18.8938V18.8911V18.8884V18.8857V18.883V18.8803V18.8776V18.8748V18.8721V18.8693V18.8665V18.8637V18.8609V18.8581V18.8553V18.8524V18.8496V18.8467V18.8438V18.8409V18.838V18.8351V18.8321V18.8292V18.8262V18.8233V18.8203V18.8173V18.8143V18.8113V18.8083V18.8052V18.8022V18.7991V18.796V18.793V18.7899V18.7868V18.7837V18.7806V18.7774V18.7743V18.7711V18.768V18.7648V18.7616V18.7585V18.7553V18.7521V18.7488V18.7456V18.7424V18.7392V18.7359V18.7327V18.7294V18.7261V18.7228V18.7196V18.7163V18.7129V18.7096V18.7063V18.703V18.6997V18.6963V18.693V18.6896V18.6863V18.6829V18.6795V18.6761V18.6727V18.6693V18.6659V18.6625V18.6591V18.6557V18.6523V18.6488V18.6454V18.642V18.6385V18.6351V18.6316V18.6281V18.6247V18.6212V18.6177V18.6142V18.6108V18.6073V18.6038V18.6003V18.5968V18.5933V18.5897V18.5862V18.5827V18.5792V18.5757V18.5721V18.5686V18.5651V18.5615V18.558V18.5544V18.5509V18.5473V18.5438V18.5402V18.5367V18.5331V18.5296V18.526V18.5224V18.5189V18.5153V18.5117V18.5082V18.5046V18.501V18.4974V18.4939V18.4903V18.4867V18.4831V18.4795V18.476V18.4724V18.4688V18.4652V18.4616V18.4581V18.4545V18.4509V18.4473V18.4437V18.4402V18.4366V18.433V18.4294V18.4259V18.4223V18.4187V18.4152V18.4116V18.408V18.4045V18.4009V18.3973V18.3938V18.3902V18.3867V18.3831V18.3795V18.376V18.3725V18.3689V18.3654V18.3618V18.3583V18.3548V18.3512V18.3477V18.3442V18.3407V18.3372V18.3337V18.3302V18.3267V18.3232V18.3197V18.3162V18.3127V18.3092V18.3057V18.3023V18.2988V18.2954V18.2919V18.2885V18.285V18.2816V18.2781V18.2747V18.2713V18.2679V18.2645V18.2611V18.2577V18.2543V18.2509V18.2475V18.2441V18.2408V18.2374V18.2341V18.2307V18.2274V18.2241V18.2208V18.2174V18.2141V18.2108V18.2075V18.2043V18.201V18.1977V18.1945V18.1912V18.188V18.1847V18.1815V18.1783V18.1751V18.1719V18.1687V18.1655V18.1624V18.1592V18.1561V18.1529V18.1498V18.1494L21.956 18.1502V19.0796C21.956 19.4624 21.6484 19.7735 21.267 19.7791C21.2665 19.7791 21.2659 19.7791 21.2653 19.7791ZM21.2567 20.8236C22.2194 20.8232 22.9997 20.0428 23 19.0801L21.2567 20.8236Z" fill="#0E0E0E" stroke="#0E0E0E" stroke-width="0.6"/>
</svg>
