<svg width="25" height="24" viewBox="0 0 25 24" fill="none" xmlns="http://www.w3.org/2000/svg">
<path fill-rule="evenodd" clip-rule="evenodd" d="M4.68605 3.56521C4.01175 3.56521 3.46512 4.11184 3.46512 4.78614V5.76289C3.46512 6.43719 4.01175 6.98382 4.68605 6.98382H8.59302C9.26732 6.98382 9.81395 6.43719 9.81395 5.76289V4.78614C9.81395 4.11184 9.26732 3.56521 8.59302 3.56521H4.68605ZM2 4.78614C2 3.30268 3.20258 2.1001 4.68605 2.1001H8.59302C10.0765 2.1001 11.2791 3.30268 11.2791 4.78614V5.76289C11.2791 7.24635 10.0765 8.44893 8.59302 8.44893H4.68605C3.20258 8.44893 2 7.24635 2 5.76289V4.78614ZM16.407 3.56521C15.7327 3.56521 15.186 4.11184 15.186 4.78614V18.4606C15.186 19.1349 15.7327 19.6815 16.407 19.6815H20.314C20.9883 19.6815 21.5349 19.1349 21.5349 18.4606V4.78614C21.5349 4.11184 20.9883 3.56521 20.314 3.56521H16.407ZM13.7209 4.78614C13.7209 3.30268 14.9235 2.1001 16.407 2.1001H20.314C21.7974 2.1001 23 3.30268 23 4.78614V18.4606C23 19.944 21.7974 21.1466 20.314 21.1466H16.407C14.9235 21.1466 13.7209 19.944 13.7209 18.4606V4.78614ZM4.68605 12.3559C4.01175 12.3559 3.46512 12.9025 3.46512 13.5768V18.4606C3.46512 19.1349 4.01175 19.6815 4.68605 19.6815H8.59302C9.26732 19.6815 9.81395 19.1349 9.81395 18.4606V13.5768C9.81395 12.9025 9.26732 12.3559 8.59302 12.3559H4.68605ZM2 13.5768C2 12.0934 3.20258 10.8908 4.68605 10.8908H8.59302C10.0765 10.8908 11.2791 12.0934 11.2791 13.5768V18.4606C11.2791 19.944 10.0765 21.1466 8.59302 21.1466H4.68605C3.20258 21.1466 2 19.944 2 18.4606V13.5768Z" fill="#707070"/>
</svg>
