<svg width="21" height="20" viewBox="0 0 21 20" fill="none" xmlns="http://www.w3.org/2000/svg">
<path fill-rule="evenodd" clip-rule="evenodd" d="M2.68605 1.46512C2.01175 1.46512 1.46512 2.01175 1.46512 2.68605V3.66279C1.46512 4.33709 2.01175 4.88372 2.68605 4.88372H6.59302C7.26732 4.88372 7.81395 4.33709 7.81395 3.66279V2.68605C7.81395 2.01175 7.26732 1.46512 6.59302 1.46512H2.68605ZM0 2.68605C0 1.20258 1.20258 0 2.68605 0H6.59302C8.07649 0 9.27907 1.20258 9.27907 2.68605V3.66279C9.27907 5.14625 8.07649 6.34884 6.59302 6.34884H2.68605C1.20258 6.34884 0 5.14625 0 3.66279V2.68605ZM14.407 1.46512C13.7327 1.46512 13.186 2.01175 13.186 2.68605V16.3605C13.186 17.0348 13.7327 17.5814 14.407 17.5814H18.314C18.9883 17.5814 19.5349 17.0348 19.5349 16.3605V2.68605C19.5349 2.01175 18.9883 1.46512 18.314 1.46512H14.407ZM11.7209 2.68605C11.7209 1.20258 12.9235 0 14.407 0H18.314C19.7974 0 21 1.20258 21 2.68605V16.3605C21 17.8439 19.7974 19.0465 18.314 19.0465H14.407C12.9235 19.0465 11.7209 17.8439 11.7209 16.3605V2.68605ZM2.68605 10.2558C2.01175 10.2558 1.46512 10.8024 1.46512 11.4767V16.3605C1.46512 17.0348 2.01175 17.5814 2.68605 17.5814H6.59302C7.26732 17.5814 7.81395 17.0348 7.81395 16.3605V11.4767C7.81395 10.8024 7.26732 10.2558 6.59302 10.2558H2.68605ZM0 11.4767C0 9.99328 1.20258 8.7907 2.68605 8.7907H6.59302C8.07649 8.7907 9.27907 9.99328 9.27907 11.4767V16.3605C9.27907 17.8439 8.07649 19.0465 6.59302 19.0465H2.68605C1.20258 19.0465 0 17.8439 0 16.3605V11.4767Z" fill="#2A3B8F"/>
<path d="M13.186 2.68605C13.186 2.01175 13.7327 1.46512 14.407 1.46512H18.314C18.9883 1.46512 19.5349 2.01175 19.5349 2.68605V16.3605C19.5349 17.0348 18.9883 17.5814 18.314 17.5814H14.407C13.7327 17.5814 13.186 17.0348 13.186 16.3605V2.68605Z" fill="#2A3B8F"/>
<path d="M1.46512 11.4767C1.46512 10.8024 2.01175 10.2558 2.68605 10.2558H6.59302C7.26732 10.2558 7.81395 10.8024 7.81395 11.4767V16.3605C7.81395 17.0348 7.26732 17.5814 6.59302 17.5814H2.68605C2.01175 17.5814 1.46512 17.0348 1.46512 16.3605V11.4767Z" fill="#2A3B8F"/>
<path d="M1.46512 2.68605C1.46512 2.01175 2.01175 1.46512 2.68605 1.46512H6.59302C7.26732 1.46512 7.81395 2.01175 7.81395 2.68605V3.66279C7.81395 4.33709 7.26732 4.88372 6.59302 4.88372H2.68605C2.01175 4.88372 1.46512 4.33709 1.46512 3.66279V2.68605Z" fill="#2A3B8F"/>
</svg>
