<svg width="25" height="24" viewBox="0 0 25 24" fill="none" xmlns="http://www.w3.org/2000/svg">
<path d="M12.5 1C10.4233 1 8.39324 1.61581 6.66652 2.76956C4.93981 3.92331 3.594 5.56318 2.79928 7.4818C2.00455 9.40042 1.79662 11.5116 2.20175 13.5484C2.60689 15.5852 3.60691 17.4561 5.07535 18.9246C6.5438 20.393 8.41471 21.3931 10.4515 21.7982C12.4883 22.2034 14.5995 21.9955 16.5181 21.2008C18.4367 20.406 20.0766 19.0602 21.2304 17.3335C22.3842 15.6068 23 13.5768 23 11.5001C22.9969 8.71627 21.8896 6.04737 19.9212 4.0789C17.9527 2.11044 15.2838 1.00316 12.5 1ZM12.5 20.6438C10.6916 20.6438 8.92381 20.1076 7.42017 19.1029C5.91654 18.0982 4.74459 16.6702 4.05254 14.9995C3.36048 13.3287 3.17939 11.4903 3.53218 9.71662C3.88496 7.94296 4.75577 6.31375 6.03448 5.035C7.3132 3.75625 8.94239 2.88539 10.716 2.53256C12.4897 2.17973 14.3281 2.36076 15.9989 3.05278C17.6697 3.74479 19.0977 4.91669 20.1024 6.4203C21.1071 7.9239 21.6434 9.69168 21.6435 11.5001C21.6408 13.9242 20.6765 16.2483 18.9624 17.9625C17.2483 19.6766 14.9242 20.6411 12.5 20.6438Z" fill="#2A3B8F"/>
<path fill-rule="evenodd" clip-rule="evenodd" d="M12.5 20.6438C10.6916 20.6438 8.92381 20.1076 7.42017 19.1029C5.91654 18.0982 4.74459 16.6702 4.05254 14.9995C3.36048 13.3287 3.17939 11.4903 3.53218 9.71662C3.88496 7.94296 4.75577 6.31375 6.03448 5.035C7.3132 3.75625 8.94239 2.88539 10.716 2.53256C12.4897 2.17973 14.3281 2.36076 15.9989 3.05278C17.6697 3.74479 19.0977 4.91669 20.1024 6.4203C21.1071 7.9239 21.6434 9.69168 21.6435 11.5001C21.6408 13.9242 20.6765 16.2483 18.9624 17.9625C17.2483 19.6766 14.9242 20.6411 12.5 20.6438ZM16.4102 6.70093C16.283 6.82813 16.1105 6.89959 15.9306 6.89959H13.8557C14.2199 7.40828 14.4773 7.91696 14.5901 8.51043H15.9306C16.1105 8.51043 16.283 8.58189 16.4102 8.70909C16.5374 8.83628 16.6088 9.0088 16.6088 9.18868C16.6088 9.36857 16.5374 9.54108 16.4102 9.66828C16.283 9.79548 16.1105 9.86693 15.9306 9.86693H14.5901C14.4362 10.6987 13.9964 11.4506 13.3468 11.9925C12.6972 12.5343 11.8786 12.8321 11.0327 12.8343H10.7747L14.4423 16.2852C14.5069 16.3449 14.559 16.4169 14.5954 16.4969C14.6318 16.577 14.6519 16.6635 14.6544 16.7514C14.657 16.8394 14.6419 16.9269 14.6101 17.0089C14.5784 17.091 14.5305 17.1658 14.4695 17.2291C14.3461 17.36 14.176 17.4366 13.9963 17.4422C13.8166 17.4479 13.6419 17.3821 13.5107 17.2592L8.60352 12.626C8.50455 12.5347 8.43577 12.4154 8.40637 12.284C8.37696 12.1526 8.38833 12.0154 8.43896 11.8906C8.48958 11.7658 8.57705 11.6595 8.68969 11.5857C8.80233 11.512 8.93479 11.4743 9.06939 11.4778H11.0325C11.5176 11.475 11.989 11.3172 12.378 11.0274C12.767 10.7376 13.053 10.3309 13.1944 9.86693H9.06939C8.88951 9.86693 8.71699 9.79548 8.5898 9.66828C8.4626 9.54108 8.39114 9.36857 8.39114 9.18868C8.39114 9.0088 8.4626 8.83628 8.5898 8.70909C8.71699 8.58189 8.88951 8.51043 9.06939 8.51043H13.1946C13.0532 8.04644 12.7671 7.63982 12.3781 7.35C11.9892 7.06019 11.5177 6.90236 11.0327 6.89959H9.06939C8.88951 6.89959 8.71699 6.82813 8.5898 6.70093C8.4626 6.57374 8.39114 6.40122 8.39114 6.22134C8.39114 6.04145 8.4626 5.86894 8.5898 5.74174C8.71699 5.61454 8.88951 5.54309 9.06939 5.54309H15.9306C16.1105 5.54309 16.283 5.61454 16.4102 5.74174C16.5374 5.86894 16.6088 6.04145 16.6088 6.22134C16.6088 6.40122 16.5374 6.57374 16.4102 6.70093Z" fill="#2A3B8F"/>
</svg>
