<svg width="25" height="24" viewBox="0 0 25 24" fill="none" xmlns="http://www.w3.org/2000/svg">
<path d="M15.5 13C15.5 14.2427 14.4927 15.25 13.25 15.25H11.75C10.5072 15.25 9.5 14.2427 9.5 13H5V19.75C5 20.164 5.336 20.5 5.75 20.5H19.25C19.664 20.5 20 20.164 20 19.75V13H15.5Z" fill="#2A3B8F"/>
<path d="M14 11.5V13C14 13.414 13.664 13.75 13.25 13.75H11.75C11.336 13.75 11 13.414 11 13V11.5C11 11.086 11.336 10.75 11.75 10.75H13.25C13.664 10.75 14 11.086 14 11.5Z" fill="#2A3B8F"/>
<path d="M15.5 11.5H20.75C20.9487 11.5 21.14 11.4213 21.2803 11.2803C21.4213 11.14 21.5 10.9487 21.5 10.75V8.5C21.5 8.086 21.164 7.75 20.75 7.75H4.25C3.836 7.75 3.5 8.086 3.5 8.5V10.75C3.5 10.9487 3.57875 11.14 3.71975 11.2803C3.86 11.4213 4.05125 11.5 4.25 11.5H9.5C9.5 10.2572 10.5072 9.25 11.75 9.25H13.25C14.4927 9.25 15.5 10.2572 15.5 11.5Z" fill="#2A3B8F"/>
<path d="M15.5 6.25H9.5V3.25C9.5 3.05125 9.57875 2.86 9.71975 2.71975C9.86 2.57875 10.0513 2.5 10.25 2.5H14.75C14.9487 2.5 15.14 2.57875 15.2803 2.71975C15.4213 2.86 15.5 3.05125 15.5 3.25V6.25Z" fill="#2A3B8F"/>
</svg>
