<svg width="24" height="24" viewBox="0 0 24 24" fill="none" xmlns="http://www.w3.org/2000/svg">
<path d="M3.27295 6.54526C3.27295 8.95522 5.22661 10.9089 7.63657 10.9089C10.0465 10.9089 12.0002 8.95522 12.0002 6.54526C12.0002 4.13531 10.0465 2.18164 7.63657 2.18164C5.22661 2.18164 3.27295 4.13531 3.27295 6.54526ZM9.81841 6.54526C9.81841 7.75024 8.84155 8.7271 7.63657 8.7271C6.43159 8.7271 5.45479 7.75024 5.45479 6.54526C5.45479 5.34028 6.43164 4.36343 7.63662 4.36343C8.8416 4.36343 9.81841 5.34028 9.81841 6.54526Z" fill="#A8A8A8"/>
<path d="M1.09089 21.8181H14.1818C14.7843 21.8181 15.2727 21.3297 15.2727 20.7272V17.4544C15.2727 15.0445 13.319 13.0908 10.9091 13.0908H4.36362C1.95367 13.0908 0 15.0444 0 17.4544V20.7271C0 21.3296 0.488404 21.8181 1.09089 21.8181ZM2.18184 17.4544C2.18184 16.2494 3.1587 15.2726 4.36367 15.2726H10.9091C12.1141 15.2726 13.091 16.2494 13.091 17.4544V19.6362H2.18184V17.4544Z" fill="#A8A8A8"/>
<path d="M22.9093 2.18164H16.3638C15.7614 2.18164 15.2729 2.67004 15.2729 3.27253C15.2729 3.87502 15.7614 4.36343 16.3638 4.36343H22.9093C23.5118 4.36343 24.0002 3.87502 24.0002 3.27253C24.0002 2.67004 23.5118 2.18164 22.9093 2.18164Z" fill="#A8A8A8"/>
<path d="M22.9093 6.54492H16.3638C15.7614 6.54492 15.2729 7.03333 15.2729 7.63581C15.2729 8.2383 15.7614 8.72671 16.3638 8.72671H22.9093C23.5118 8.72671 24.0002 8.2383 24.0002 7.63581C24.0002 7.03333 23.5118 6.54492 22.9093 6.54492Z" fill="#A8A8A8"/>
<path d="M22.9093 10.9092H16.3638C15.7614 10.9092 15.2729 11.3976 15.2729 12.0001C15.2729 12.6026 15.7614 13.091 16.3638 13.091H22.9093C23.5118 13.091 24.0002 12.6026 24.0002 12.0001C24.0002 11.3976 23.5118 10.9092 22.9093 10.9092Z" fill="#A8A8A8"/>
</svg>
