<svg width="25" height="24" viewBox="0 0 25 24" fill="none" xmlns="http://www.w3.org/2000/svg">
<path fill-rule="evenodd" clip-rule="evenodd" d="M7.70227 5.78477C7.70227 8.42191 9.85419 10.5721 12.4922 10.5735C15.1304 10.5735 17.2823 8.42175 17.2823 5.78477C17.2823 3.14751 15.1302 1 12.4923 1C9.85434 1 7.70227 3.14893 7.70227 5.78477ZM12.4923 2.65944C14.2295 2.65944 15.6242 4.05344 15.6242 5.78609C15.6242 7.51883 14.2294 8.91414 12.4921 8.91535C10.7551 8.91526 9.3604 7.52021 9.3604 5.78609C9.3604 4.05332 10.755 2.65944 12.4923 2.65944Z" fill="#2A3B8F"/>
<path fill-rule="evenodd" clip-rule="evenodd" d="M12.554 11.5L12.5475 11.5C7.67945 11.5 3.72394 15.2523 3.72394 20.1293V21.0629L3.72266 21.0642V21.1703C3.72266 21.628 4.09468 22 4.55238 22H20.4332C20.8909 22 21.263 21.628 21.263 21.1703V20.1301C21.2929 15.2854 17.3897 11.5328 12.554 11.5ZM5.38091 20.1292C5.38091 16.1558 8.57659 13.1658 12.5339 13.1594L12.5405 13.1594C16.4082 13.1862 19.5257 16.0744 19.6023 19.9312V20.3405H5.38091V20.1292Z" fill="#2A3B8F"/>
<path d="M12.5339 13.1594C8.57659 13.1658 5.38091 16.1558 5.38091 20.1292V20.3405H19.6023V19.9312C19.5257 16.0744 16.4082 13.1862 12.5405 13.1594L12.5339 13.1594Z" fill="#2A3B8F"/>
<path d="M15.6242 5.78609C15.6242 4.05344 14.2295 2.65944 12.4923 2.65944C10.755 2.65944 9.3604 4.05332 9.3604 5.78609C9.3604 7.52021 10.7551 8.91526 12.4921 8.91535C14.2294 8.91414 15.6242 7.51883 15.6242 5.78609Z" fill="#2A3B8F"/>
</svg>
