<svg width="22" height="23" viewBox="0 0 22 23" fill="none" xmlns="http://www.w3.org/2000/svg">
<path d="M14.5095 20.2052L12.4667 22.2218C12.0651 22.6234 11.5762 22.8242 11 22.8242C10.4238 22.8242 9.93492 22.6234 9.53333 22.2218L7.49048 20.2052H4.71429C4.1381 20.2052 3.64484 20 3.23452 19.5897C2.82421 19.1794 2.61905 18.6861 2.61905 18.1099V15.3337L0.602381 13.2909C0.200794 12.8893 0 12.4004 0 11.8242C0 11.248 0.200794 10.7591 0.602381 10.3576L2.61905 8.3147V5.5385C2.61905 4.96231 2.82421 4.46906 3.23452 4.05874C3.64484 3.64843 4.1381 3.44327 4.71429 3.44327H7.49048L9.53333 1.4266C9.93492 1.02501 10.4238 0.824219 11 0.824219C11.5762 0.824219 12.0651 1.02501 12.4667 1.4266L14.5095 3.44327H17.2857C17.8619 3.44327 18.3552 3.64843 18.7655 4.05874C19.1758 4.46906 19.381 4.96231 19.381 5.5385V8.3147L21.3976 10.3576C21.7992 10.7591 22 11.248 22 11.8242C22 12.4004 21.7992 12.8893 21.3976 13.2909L19.381 15.3337V18.1099C19.381 18.6861 19.1758 19.1794 18.7655 19.5897C18.3552 20 17.8619 20.2052 17.2857 20.2052H14.5095ZM11 20.729L13.619 18.1099H17.2857V14.4433L19.9048 11.8242L17.2857 9.20517V5.5385H13.619L11 2.91946L8.38095 5.5385H4.71429V9.20517L2.09524 11.8242L4.71429 14.4433V18.1099H8.38095L11 20.729ZM11 14.4171L12.9905 15.6218C13.1825 15.7441 13.3746 15.7397 13.5667 15.6087C13.7587 15.4778 13.8286 15.2988 13.7762 15.0718L13.2524 12.7933L15.0333 11.248C15.2079 11.0909 15.2603 10.9032 15.1905 10.6849C15.1206 10.4667 14.9635 10.3488 14.719 10.3314L12.3881 10.148L11.4714 8.00041C11.3841 7.79089 11.227 7.68612 11 7.68612C10.773 7.68612 10.6159 7.79089 10.5286 8.00041L9.61191 10.148L7.28095 10.3314C7.03651 10.3488 6.87937 10.4667 6.80952 10.6849C6.73968 10.9032 6.79206 11.0909 6.96667 11.248L8.74762 12.7933L8.22381 15.0718C8.17143 15.2988 8.24127 15.4778 8.43333 15.6087C8.6254 15.7397 8.81746 15.7441 9.00952 15.6218L11 14.4171Z" fill="#0E0E0E"/>
</svg>
