<svg width="21" height="19" viewBox="0 0 21 19" fill="none" xmlns="http://www.w3.org/2000/svg">
<path d="M6.15439 10.4427C5.96414 10.0188 5.6797 9.64395 5.32272 9.34657C4.96575 9.0492 4.54563 8.83718 4.09436 8.72665V1.02118C4.09436 0.822865 4.01558 0.632674 3.87535 0.492446C3.73512 0.352217 3.54493 0.273438 3.34662 0.273438C3.14831 0.273438 2.95812 0.352217 2.81789 0.492446C2.67766 0.632674 2.59888 0.822865 2.59888 1.02118V8.72291C2.4199 8.76868 2.24487 8.82869 2.07546 8.90237C1.49288 9.16619 1.00684 9.60479 0.684776 10.1573C0.362712 10.7098 0.220587 11.3489 0.278118 11.9858C0.335648 12.6228 0.589981 13.226 1.00584 13.7119C1.42169 14.1978 1.97845 14.5422 2.59888 14.6974V17.4715C2.59888 17.6698 2.67766 17.86 2.81789 18.0002C2.95812 18.1404 3.14831 18.2192 3.34662 18.2192C3.54493 18.2192 3.73512 18.1404 3.87535 18.0002C4.01558 17.86 4.09436 17.6698 4.09436 17.4715V14.7011C4.57862 14.5828 5.02661 14.3479 5.39934 14.0169C5.77207 13.6858 6.05822 13.2687 6.2329 12.8018C6.37696 12.4231 6.44421 12.0194 6.43073 11.6144C6.41725 11.2094 6.32331 10.8111 6.15439 10.4427ZM4.83462 12.2747C4.7425 12.5192 4.5915 12.7372 4.39499 12.9095C4.19848 13.0817 3.96252 13.2028 3.70803 13.2621C3.45353 13.3213 3.18835 13.3169 2.93597 13.2492C2.68359 13.1815 2.45181 13.0526 2.26115 12.8739C2.07049 12.6952 1.92683 12.4723 1.84292 12.2248C1.759 11.9773 1.7374 11.713 1.78004 11.4552C1.82269 11.1974 1.92825 10.9541 2.08738 10.7468C2.24651 10.5396 2.4543 10.3748 2.69235 10.267C2.89632 10.173 3.1183 10.1245 3.34288 10.1249C3.64892 10.1249 3.94849 10.213 4.20575 10.3788C4.46301 10.5445 4.66706 10.7809 4.7935 11.0596C4.88178 11.2488 4.93154 11.4536 4.93988 11.6623C4.94823 11.8709 4.91499 12.079 4.8421 12.2747H4.83462Z" fill="#1F5CC7" stroke="#1F5CC7" stroke-width="0.1"/>
<path d="M19.9864 10.4427C19.7962 10.0188 19.5117 9.64395 19.1548 9.34657C18.7978 9.0492 18.3777 8.83718 17.9264 8.72665V1.02118C17.9264 0.822865 17.8476 0.632674 17.7074 0.492446C17.5672 0.352217 17.377 0.273438 17.1787 0.273438C16.9803 0.273438 16.7901 0.352217 16.6499 0.492446C16.5097 0.632674 16.4309 0.822865 16.4309 1.02118V8.72291C16.2519 8.76868 16.0769 8.82869 15.9075 8.90237C15.3249 9.16619 14.8389 9.60479 14.5168 10.1573C14.1947 10.7098 14.0526 11.3489 14.1101 11.9858C14.1677 12.6228 14.422 13.226 14.8379 13.7119C15.2537 14.1978 15.8105 14.5422 16.4309 14.6974V17.4715C16.4309 17.6698 16.5097 17.86 16.6499 18.0002C16.7901 18.1404 16.9803 18.2192 17.1787 18.2192C17.377 18.2192 17.5672 18.1404 17.7074 18.0002C17.8476 17.86 17.9264 17.6698 17.9264 17.4715V14.7011C18.4106 14.5828 18.8586 14.3479 19.2314 14.0169C19.6041 13.6858 19.8903 13.2687 20.0649 12.8018C20.209 12.4231 20.2762 12.0194 20.2628 11.6144C20.2493 11.2094 20.1553 10.8111 19.9864 10.4427ZM18.6667 12.2747C18.5745 12.5192 18.4235 12.7372 18.227 12.9095C18.0305 13.0817 17.7946 13.2028 17.5401 13.2621C17.2856 13.3213 17.0204 13.3169 16.768 13.2492C16.5156 13.1815 16.2838 13.0526 16.0932 12.8739C15.9025 12.6952 15.7589 12.4723 15.6749 12.2248C15.591 11.9773 15.5694 11.713 15.6121 11.4552C15.6547 11.1974 15.7603 10.9541 15.9194 10.7468C16.0785 10.5396 16.2863 10.3748 16.5244 10.267C16.7285 10.1733 16.9504 10.1249 17.1749 10.1249C17.481 10.1249 17.7805 10.213 18.0378 10.3788C18.295 10.5445 18.4991 10.7809 18.6255 11.0596C18.7126 11.2493 18.7611 11.4544 18.7681 11.663C18.7752 11.8716 18.7407 12.0795 18.6667 12.2747Z" fill="#1F5CC7" stroke="#1F5CC7" stroke-width="0.1"/>
<path d="M11.3516 4.01214C11.2394 3.97102 11.1273 3.93737 11.0114 3.90746V1.02118C11.0114 0.822865 10.9326 0.632674 10.7924 0.492446C10.6521 0.352217 10.4619 0.273438 10.2636 0.273438C10.0653 0.273438 9.87513 0.352217 9.7349 0.492446C9.59468 0.632674 9.5159 0.822865 9.5159 1.02118V3.91867C9.07835 4.02913 8.67032 4.23414 8.32054 4.51927C7.97076 4.8044 7.68771 5.16273 7.49133 5.56904C7.29495 5.97534 7.19001 6.41975 7.18388 6.87098C7.17775 7.32222 7.27059 7.76931 7.45587 8.1808C7.62166 8.55025 7.859 8.8832 8.15418 9.16042C8.44937 9.43764 8.79655 9.65363 9.17567 9.79592C9.28784 9.83704 9.40373 9.87069 9.5159 9.9006V17.4715C9.5159 17.6698 9.59468 17.86 9.7349 18.0002C9.87513 18.1404 10.0653 18.2192 10.2636 18.2192C10.4619 18.2192 10.6521 18.1404 10.7924 18.0002C10.9326 17.86 11.0114 17.6698 11.0114 17.4715V9.89686C11.1912 9.85396 11.3665 9.79387 11.5348 9.7174C12.0949 9.46861 12.568 9.05842 12.8937 8.53928C13.2195 8.02014 13.3829 7.41566 13.3633 6.80312C13.3436 6.19058 13.1417 5.59783 12.7833 5.10066C12.425 4.60349 11.9265 4.22449 11.3516 4.01214ZM11.7629 7.47044C11.652 7.76458 11.4563 8.01921 11.2007 8.20212C10.945 8.38504 10.6408 8.48801 10.3267 8.49802C10.0125 8.50802 9.70237 8.42461 9.4356 8.25834C9.16882 8.09206 8.95737 7.85039 8.82797 7.56391C8.71866 7.32199 8.67171 7.05654 8.69139 6.7918C8.71108 6.52706 8.79679 6.27147 8.94068 6.04838C9.08457 5.82528 9.28207 5.6418 9.51513 5.51469C9.74819 5.38757 10.0094 5.32087 10.2749 5.32069C10.4663 5.32083 10.6562 5.35501 10.8357 5.42163C11.0291 5.49629 11.206 5.60835 11.3561 5.75141C11.5062 5.89447 11.6266 6.06572 11.7105 6.25536C11.7994 6.4443 11.8498 6.64904 11.8588 6.85764C11.8678 7.06625 11.8352 7.27456 11.7629 7.47044Z" fill="#1F5CC7" stroke="#1F5CC7" stroke-width="0.1"/>
</svg>
